<svg data-v-423bf9ae="" xmlns="http://www.w3.org/2000/svg" viewBox="0 0 418 90" class="iconLeft"><!----><!----><!----><g data-v-423bf9ae="" id="712b1f52-fcd9-48b0-b4a6-6ca03cfab8a0" fill="black" transform="matrix(3.45821356062335,0,0,3.45821356062335,118.18416570483603,6.492795462620499)"><path d="M4.52 15.64L4.52 15.64L4.52 15.64Q2.97 15.64 1.90 14.38L1.90 14.38L1.90 14.38Q0.84 13.12 0.84 10.71L0.84 10.71L0.84 10.71Q0.84 8.93 1.41 7.47L1.41 7.47L1.41 7.47Q1.99 6.01 3.21 5.08L3.21 5.08L3.21 5.08Q4.44 4.14 5.98 4.14L5.98 4.14L5.98 4.14Q7.52 4.14 8.22 4.89L8.22 4.89L8.22 4.89Q8.92 5.64 8.92 6.61L8.92 6.61L8.92 6.61Q8.92 7.57 8.43 8.16L8.43 8.16L8.43 8.16Q7.94 8.74 7.15 8.74L7.15 8.74L7.15 8.74Q6.90 8.74 6.54 8.62L6.54 8.62L6.54 8.62Q6.86 8.29 7.11 7.68L7.11 7.68L7.11 7.68Q7.35 7.07 7.35 6.45L7.35 6.45L7.35 6.45Q7.35 5.84 7.02 5.40L7.02 5.40L7.02 5.40Q6.69 4.96 5.98 4.96L5.98 4.96L5.98 4.96Q4.90 4.96 4.05 5.85L4.05 5.85L4.05 5.85Q3.21 6.73 2.78 8.03L2.78 8.03L2.78 8.03Q2.35 9.32 2.35 10.70L2.35 10.70L2.35 10.70Q2.35 12.63 3.09 13.59L3.09 13.59L3.09 13.59Q3.84 14.55 5.01 14.55L5.01 14.55L5.01 14.55Q5.80 14.55 6.62 14.07L6.62 14.07L6.62 14.07Q7.45 13.59 7.98 12.70L7.98 12.70L7.98 12.70Q8.19 12.70 8.37 12.82L8.37 12.82L8.37 12.82Q8.55 12.95 8.55 13.08L8.55 13.08L8.55 13.08Q7.77 14.56 6.58 15.13L6.58 15.13L6.58 15.13Q5.54 15.64 4.52 15.64ZM3.50 15.99L3.50 15.99Q4.38 16.04 4.79 16.47L4.79 16.47L4.79 16.47Q5.21 16.90 5.21 17.61L5.21 17.61L5.21 17.61Q5.21 18.31 4.73 18.94L4.73 18.94L4.73 18.94Q4.24 19.56 3.42 19.81L3.42 19.81L3.42 19.81Q2.87 19.57 2.87 18.83L2.87 18.83L2.87 18.83Q3.47 18.70 3.82 18.33L3.82 18.33L3.82 18.33Q4.17 17.96 4.17 17.47L4.17 17.47L4.17 17.47Q4.17 16.70 3.42 16.37L3.42 16.37L3.42 16.37Q3.42 16.18 3.50 15.99L3.50 15.99ZM14.28 8.08L14.28 8.08L14.28 8.08Q13.44 8.08 12.86 9.04L12.86 9.04L12.86 9.04Q12.28 10.01 12.08 11.31L12.08 11.31L12.47 11.31L12.47 11.31Q13.22 11.31 13.76 11.10L13.76 11.10L13.76 11.10Q14.31 10.89 14.60 10.56L14.60 10.56L14.60 10.56Q15.16 9.91 15.16 9.10L15.16 9.10L15.16 9.10Q15.16 8.64 14.95 8.36L14.95 8.36L14.95 8.36Q14.73 8.08 14.28 8.08ZM16.25 13.75L16.25 13.75Q15.61 14.80 14.84 15.22L14.84 15.22L14.84 15.22Q14.07 15.64 13.05 15.64L13.05 15.64L13.05 15.64Q12.04 15.64 11.28 14.74L11.28 14.74L11.28 14.74Q10.53 13.85 10.53 12.22L10.53 12.22L10.53 12.22Q10.53 10.37 11.52 8.92L11.52 8.92L11.52 8.92Q12.01 8.22 12.80 7.78L12.80 7.78L12.80 7.78Q13.59 7.35 14.55 7.35L14.55 7.35L14.55 7.35Q16.65 7.35 16.65 9.38L16.65 9.38L16.65 9.38Q16.65 10.60 15.70 11.29L15.70 11.29L15.70 11.29Q14.76 11.98 13.51 11.98L13.51 11.98L13.51 11.98Q12.68 11.98 12.03 11.83L12.03 11.83L12.03 11.83Q12.01 11.97 12.01 12.26L12.01 12.26L12.01 12.26Q12.01 14.74 13.48 14.74L13.48 14.74L13.48 14.74Q14.87 14.74 15.74 13.37L15.74 13.37L15.74 13.37Q16.25 13.44 16.25 13.75L16.25 13.75ZM20.58 15.43L20.58 15.43L20.58 15.43Q20.24 15.62 19.83 15.62L19.83 15.62L19.83 15.62Q19.42 15.62 19.38 15.41L19.38 15.41L19.38 15.41Q19.15 14.52 18.86 12.73L18.86 12.73L18.86 12.73Q18.56 10.95 18.26 9.61L18.26 9.61L18.26 9.61Q17.96 8.27 17.54 7.59L17.54 7.59L17.54 7.59Q18.05 7.22 18.54 7.22L18.54 7.22L18.54 7.22Q19.17 7.22 19.43 7.95L19.43 7.95L19.43 7.95Q19.70 8.67 19.94 10.97L19.94 10.97L19.94 10.97Q20.17 13.27 20.36 13.96L20.36 13.96L20.36 13.96Q23.07 8.72 23.07 7.04L23.07 7.04L23.07 7.04Q23.94 7.63 23.94 8.25L23.94 8.25L23.94 8.25Q23.94 8.88 23.36 9.98L23.36 9.98L23.36 9.98Q22.78 11.07 21.90 12.64L21.90 12.64L21.90 12.64Q21.03 14.20 20.58 15.43ZM27.08 15.64L27.08 15.64Q26.28 15.36 25.96 14.78L25.96 14.78L25.96 14.78Q25.65 14.20 25.65 13.37L25.65 13.37L25.65 13.37Q25.65 12.54 25.87 11.00L25.87 11.00L25.87 11.00Q26.10 9.46 26.10 8.61L26.10 8.61L26.10 8.61Q26.10 7.76 26.01 7.29L26.01 7.29L26.01 7.29Q26.26 7.27 26.42 7.27L26.42 7.27L26.42 7.27Q27.05 7.27 27.33 7.55L27.33 7.55L27.33 7.55Q27.61 7.83 27.61 8.47L27.61 8.47L27.61 8.47Q27.61 8.68 27.27 10.68L27.27 10.68L27.27 10.68Q26.92 12.67 26.91 13.96L26.91 13.96L26.91 13.96Q26.91 15.26 27.08 15.64L27.08 15.64ZM27.29 5.88L27.29 5.88L27.29 5.88Q26.11 5.88 26.11 5.08L26.11 5.08L26.11 5.08Q26.11 4.80 26.32 4.30L26.32 4.30L26.32 4.30Q26.63 4.24 26.85 4.24L26.85 4.24L26.85 4.24Q28.03 4.24 28.03 5.04L28.03 5.04L28.03 5.04Q28.03 5.32 27.82 5.82L27.82 5.82L27.82 5.82Q27.51 5.88 27.29 5.88ZM31.42 11.10L31.42 11.10Q31.85 9.10 32.68 8.21L32.68 8.21L32.68 8.21Q33.50 7.32 34.29 7.32L34.29 7.32L34.29 7.32Q35.07 7.32 35.51 7.80L35.51 7.80L35.51 7.80Q35.95 8.27 35.95 9.14L35.95 9.14L35.95 9.14Q35.95 10.00 35.46 10.68L35.46 10.68L35.46 10.68Q34.97 11.35 34.12 11.68L34.12 11.68L34.29 12.19L34.29 12.19Q34.75 13.64 35.63 15.05L35.63 15.05L35.63 15.05Q36.51 16.46 37.06 16.98L37.06 16.98L37.06 16.98Q36.68 17.11 36.34 17.11L36.34 17.11L36.34 17.11Q35.99 17.11 35.64 16.93L35.64 16.93L35.64 16.93Q35.29 16.76 35.03 16.54L35.03 16.54L35.03 16.54Q34.78 16.32 34.49 15.86L34.49 15.86L34.49 15.86Q34.20 15.39 34.03 15.06L34.03 15.06L34.03 15.06Q33.87 14.74 33.61 14.08L33.61 14.08L33.61 14.08Q33.35 13.40 32.87 12.01L32.87 12.01L32.87 12.01Q32.69 12.03 32.34 12.03L32.34 12.03L32.34 12.03Q32.26 11.96 32.26 11.58L32.26 11.58L32.26 11.58Q32.89 11.56 33.38 11.33L33.38 11.33L33.38 11.33Q33.87 11.09 34.12 10.72L34.12 10.72L34.12 10.72Q34.65 9.98 34.65 9.23L34.65 9.23L34.65 9.23Q34.65 8.85 34.48 8.60L34.48 8.60L34.48 8.60Q34.30 8.36 33.96 8.36L33.96 8.36L33.96 8.36Q33.38 8.36 32.77 9.14L32.77 9.14L32.77 9.14Q32.17 9.91 31.76 11.27L31.76 11.27L31.76 11.27Q31.35 12.63 31.35 14.11L31.35 14.11L31.35 14.11Q31.35 14.94 31.43 15.43L31.43 15.43L31.43 15.43Q31.09 15.46 31.05 15.46L31.05 15.46L31.05 15.46Q30.39 15.46 30.08 15.18L30.08 15.18L30.08 15.18Q29.76 14.90 29.76 14.30L29.76 14.30L29.76 14.30Q29.76 13.71 30.00 12.01L30.00 12.01L30.00 12.01Q30.76 6.80 30.76 4.10L30.76 4.10L30.76 4.10Q30.76 2.88 30.59 2.46L30.59 2.46L30.59 2.46Q31.40 2.76 31.73 3.33L31.73 3.33L31.73 3.33Q32.06 3.91 32.06 4.91L32.06 4.91L32.06 4.91Q32.06 5.61 31.79 7.85L31.79 7.85L31.79 7.85Q31.51 10.09 31.42 11.10L31.42 11.10ZM45.89 15.64L45.89 15.64L45.89 15.64Q44.34 15.64 43.27 14.38L43.27 14.38L43.27 14.38Q42.21 13.12 42.21 10.71L42.21 10.71L42.21 10.71Q42.21 8.93 42.78 7.47L42.78 7.47L42.78 7.47Q43.36 6.01 44.58 5.08L44.58 5.08L44.58 5.08Q45.81 4.14 47.35 4.14L47.35 4.14L47.35 4.14Q48.89 4.14 49.59 4.89L49.59 4.89L49.59 4.89Q50.29 5.64 50.29 6.61L50.29 6.61L50.29 6.61Q50.29 7.57 49.80 8.16L49.80 8.16L49.80 8.16Q49.31 8.74 48.52 8.74L48.52 8.74L48.52 8.74Q48.27 8.74 47.91 8.62L47.91 8.62L47.91 8.62Q48.23 8.29 48.47 7.68L48.47 7.68L48.47 7.68Q48.72 7.07 48.72 6.45L48.72 6.45L48.72 6.45Q48.72 5.84 48.39 5.40L48.39 5.40L48.39 5.40Q48.06 4.96 47.35 4.96L47.35 4.96L47.35 4.96Q46.27 4.96 45.42 5.85L45.42 5.85L45.42 5.85Q44.58 6.73 44.15 8.03L44.15 8.03L44.15 8.03Q43.72 9.32 43.72 10.70L43.72 10.70L43.72 10.70Q43.72 12.63 44.46 13.59L44.46 13.59L44.46 13.59Q45.21 14.55 46.38 14.55L46.38 14.55L46.38 14.55Q47.17 14.55 47.99 14.07L47.99 14.07L47.99 14.07Q48.82 13.59 49.35 12.70L49.35 12.70L49.35 12.70Q49.56 12.70 49.74 12.82L49.74 12.82L49.74 12.82Q49.92 12.95 49.92 13.08L49.92 13.08L49.92 13.08Q49.14 14.56 47.95 15.13L47.95 15.13L47.95 15.13Q46.91 15.64 45.89 15.64ZM44.87 15.99L44.87 15.99Q45.75 16.04 46.16 16.47L46.16 16.47L46.16 16.47Q46.58 16.90 46.58 17.61L46.58 17.61L46.58 17.61Q46.58 18.31 46.09 18.94L46.09 18.94L46.09 18.94Q45.61 19.56 44.79 19.81L44.79 19.81L44.79 19.81Q44.24 19.57 44.24 18.83L44.24 18.83L44.24 18.83Q44.84 18.70 45.19 18.33L45.19 18.33L45.19 18.33Q45.54 17.96 45.54 17.47L45.54 17.47L45.54 17.47Q45.54 16.70 44.79 16.37L44.79 16.37L44.79 16.37Q44.79 16.18 44.87 15.99L44.87 15.99ZM57.34 10.83L57.34 10.83L57.34 10.83Q57.34 9.46 57.00 8.87L57.00 8.87L57.00 8.87Q56.66 8.27 56.02 8.27L56.02 8.27L56.02 8.27Q55.38 8.27 54.74 8.90L54.74 8.90L54.74 8.90Q54.10 9.52 53.73 10.44L53.73 10.44L53.73 10.44Q53.35 11.35 53.35 12.34L53.35 12.34L53.35 12.34Q53.35 13.33 53.73 14.05L53.73 14.05L53.73 14.05Q54.11 14.77 54.88 14.77L54.88 14.77L54.88 14.77Q55.97 14.77 56.66 13.48L56.66 13.48L56.66 13.48Q57.34 12.19 57.34 10.83ZM53.28 10.29L53.28 10.29Q53.82 8.78 54.72 8.09L54.72 8.09L54.72 8.09Q55.62 7.39 56.55 7.39L56.55 7.39L56.55 7.39Q57.48 7.39 58.10 8.21L58.10 8.21L58.10 8.21Q58.72 9.03 58.72 10.43L58.72 10.43L58.72 10.43Q58.72 11.97 58.13 13.29L58.13 13.29L58.13 13.29Q57.47 14.74 56.22 15.32L56.22 15.32L56.22 15.32Q55.55 15.64 54.74 15.64L54.74 15.64L54.74 15.64Q53.61 15.64 52.75 14.69L52.75 14.69L52.75 14.69Q51.90 13.75 51.90 11.99L51.90 11.99L51.90 11.99Q51.90 10.23 52.65 8.95L52.65 8.95L52.65 8.95Q53.41 7.66 54.71 7.15L54.71 7.15L54.71 7.15Q54.99 7.15 54.99 7.43L54.99 7.43L54.99 7.43Q53.61 8.34 53.28 10.29L53.28 10.29ZM54.78 5.88L54.78 5.88L54.78 5.88Q53.61 5.88 53.61 5.08L53.61 5.08L53.61 5.08Q53.61 4.80 53.82 4.30L53.82 4.30L53.82 4.30Q54.12 4.24 54.35 4.24L54.35 4.24L54.35 4.24Q55.52 4.24 55.52 5.04L55.52 5.04L55.52 5.04Q55.52 5.32 55.31 5.82L55.31 5.82L55.31 5.82Q55.01 5.88 54.78 5.88ZM57.72 5.88L57.72 5.88L57.72 5.88Q56.55 5.88 56.55 5.08L56.55 5.08L56.55 5.08Q56.55 4.80 56.76 4.30L56.76 4.30L56.76 4.30Q57.06 4.24 57.29 4.24L57.29 4.24L57.29 4.24Q58.46 4.24 58.46 5.04L58.46 5.04L58.46 5.04Q58.46 5.32 58.25 5.82L58.25 5.82L58.25 5.82Q57.95 5.88 57.72 5.88ZM61.00 7.50L61.00 7.50L61.00 7.50Q62.34 7.70 63.50 7.70L63.50 7.70L63.50 7.70Q64.65 7.70 65.41 7.63L65.41 7.63L65.41 7.63Q65.62 7.20 65.72 6.83L65.72 6.83L65.72 6.83Q66.35 7.36 66.35 7.99L66.35 7.99L66.35 7.99Q66.35 8.62 65.78 9.48L65.78 9.48L65.78 9.48Q65.21 10.33 63.97 11.80L63.97 11.80L63.97 11.80Q62.72 13.26 62.09 14.11L62.09 14.11L62.09 14.11Q63.77 14.15 64.38 14.15L64.38 14.15L64.38 14.15Q64.99 14.15 65.86 14.03L65.86 14.03L65.86 14.03Q65.93 14.38 65.93 14.76L65.93 14.76L65.93 14.76Q65.93 15.53 64.86 15.53L64.86 15.53L64.86 15.53Q64.61 15.53 63.40 15.41L63.40 15.41L63.40 15.41Q62.19 15.30 61.31 15.30L61.31 15.30L61.31 15.30Q60.42 15.30 59.56 15.54L59.56 15.54L59.56 15.54Q59.75 14.49 60.49 14.22L60.49 14.22L60.49 14.22Q63.27 11.35 64.85 8.69L64.85 8.69L64.85 8.69Q64.12 8.72 63.06 8.86L63.06 8.86L63.06 8.86Q62.01 8.99 61.80 8.99L61.80 8.99L61.80 8.99Q60.89 8.99 60.89 8.08L60.89 8.08L60.89 8.08Q60.89 7.81 61.00 7.50ZM72.72 7.32L72.72 7.32L72.72 7.32Q73.92 7.32 73.92 8.57L73.92 8.57L73.92 8.57Q73.92 8.79 73.65 10.54L73.65 10.54L73.65 10.54Q73.39 12.28 73.39 13.52L73.39 13.52L73.39 13.52Q73.39 14.77 73.65 15.72L73.65 15.72L73.65 15.72Q72.80 15.39 72.47 14.77L72.47 14.77L72.47 14.77Q72.14 14.15 72.14 13.24L72.14 13.24L72.14 13.24Q72.14 12.89 72.30 11.66L72.30 11.66L72.30 11.66Q71.88 13.26 70.99 14.34L70.99 14.34L70.99 14.34Q70.11 15.43 69.36 15.43L69.36 15.43L69.36 15.43Q67.76 15.43 67.76 13.10L67.76 13.10L67.76 13.10Q67.76 12.33 67.99 10.96L67.99 10.96L67.99 10.96Q68.22 9.58 68.22 8.86L68.22 8.86L68.22 8.86Q68.22 8.15 68.03 7.42L68.03 7.42L68.03 7.42Q68.92 7.42 69.37 7.73L69.37 7.73L69.37 7.73Q69.82 8.04 69.82 8.92L69.82 8.92L69.82 8.92Q69.82 9.39 69.52 10.88L69.52 10.88L69.52 10.88Q69.23 12.36 69.23 13.08L69.23 13.08L69.23 13.08Q69.23 14.11 69.87 14.11L69.87 14.11L69.87 14.11Q70.41 14.11 70.99 13.28L70.99 13.28L70.99 13.28Q71.57 12.45 71.96 11.12L71.96 11.12L71.96 11.12Q72.35 9.79 72.35 8.48L72.35 8.48L72.35 8.48Q72.35 7.90 72.27 7.35L72.27 7.35L72.27 7.35Q72.58 7.32 72.72 7.32ZM69.94 5.88L69.94 5.88L69.94 5.88Q68.77 5.88 68.77 5.08L68.77 5.08L68.77 5.08Q68.77 4.80 68.98 4.30L68.98 4.30L68.98 4.30Q69.29 4.24 69.51 4.24L69.51 4.24L69.51 4.24Q70.69 4.24 70.69 5.04L70.69 5.04L70.69 5.04Q70.69 5.32 70.48 5.82L70.48 5.82L70.48 5.82Q70.17 5.88 69.94 5.88ZM72.88 5.88L72.88 5.88L72.88 5.88Q71.71 5.88 71.71 5.08L71.71 5.08L71.71 5.08Q71.71 4.80 71.92 4.30L71.92 4.30L71.92 4.30Q72.23 4.24 72.45 4.24L72.45 4.24L72.45 4.24Q73.63 4.24 73.63 5.04L73.63 5.04L73.63 5.04Q73.63 5.32 73.42 5.82L73.42 5.82L73.42 5.82Q73.11 5.88 72.88 5.88ZM82.73 10.12L82.73 10.12L82.73 10.12Q82.36 10.78 82.11 11.80L82.11 11.80L82.11 11.80Q81.86 12.82 81.86 13.73L81.86 13.73L81.86 13.73Q81.86 14.64 81.94 15.43L81.94 15.43L81.94 15.43Q81.58 15.46 81.51 15.46L81.51 15.46L81.51 15.46Q80.29 15.46 80.29 14.27L80.29 14.27L80.29 14.27Q80.29 13.83 80.59 12.11L80.59 12.11L80.59 12.11Q80.89 10.39 80.89 9.53L80.89 9.53L80.89 9.53Q80.89 8.67 80.25 8.67L80.25 8.67L80.25 8.67Q79.45 8.67 78.62 10.21L78.62 10.21L78.62 10.21Q77.80 11.75 77.80 13.94L77.80 13.94L77.80 13.94Q77.80 14.64 77.88 15.43L77.88 15.43L77.88 15.43Q77.52 15.46 77.45 15.46L77.45 15.46L77.45 15.46Q76.23 15.46 76.23 14.27L76.23 14.27L76.23 14.27Q76.23 14.11 76.52 12.18L76.52 12.18L76.52 12.18Q76.80 10.25 76.80 9.12L76.80 9.12L76.80 9.12Q76.80 7.99 76.57 7.06L76.57 7.06L76.57 7.06Q77.41 7.38 77.73 7.98L77.73 7.98L77.73 7.98Q78.06 8.58 78.06 9.46L78.06 9.46L78.06 9.46Q78.06 9.91 77.97 10.60L77.97 10.60L77.97 10.60Q78.44 9.20 79.28 8.27L79.28 8.27L79.28 8.27Q80.12 7.35 80.82 7.35L80.82 7.35L80.82 7.35Q82.39 7.35 82.39 9.77L82.39 9.77L82.39 9.77Q82.91 8.65 83.59 8.00L83.59 8.00L83.59 8.00Q84.27 7.35 84.85 7.35L84.85 7.35L84.85 7.35Q85.71 7.35 86.06 7.86L86.06 7.86L86.06 7.86Q86.41 8.37 86.41 9.25L86.41 9.25L86.41 9.25Q86.41 10.12 86.13 11.70L86.13 11.70L86.13 11.70Q85.86 13.29 85.86 14.01L85.86 14.01L85.86 14.01Q85.86 14.73 86.04 15.06L86.04 15.06L86.04 15.06Q86.23 15.39 86.66 15.62L86.66 15.62L86.66 15.62Q86.48 15.64 86.14 15.64L86.14 15.64L86.14 15.64Q85.25 15.64 84.82 15.27L84.82 15.27L84.82 15.27Q84.39 14.90 84.39 14L84.39 14L84.39 14Q84.39 13.48 84.67 11.91L84.67 11.91L84.67 11.91Q84.95 10.33 84.95 9.59L84.95 9.59L84.95 9.59Q84.95 8.67 84.31 8.67L84.31 8.67L84.31 8.67Q83.94 8.67 83.52 9.06L83.52 9.06L83.52 9.06Q83.10 9.45 82.73 10.12Z"></path></g><!----><g data-v-423bf9ae="" id="dcac71a5-d2bd-4058-ad1f-e1f40c0472ec" transform="matrix(1.0231437388206623,0,0,1.0231437388206623,-0.5583939981548411,-6.140563722062929)" stroke="none" fill="black"><g data-name="Group"><path data-name="Compound Path" d="M87.7 70.3l-2.1.2-7.3-12.6a11.8 11.8 0 0 0-9.2-19.3l-1.9.2-7.7-13.6a11.8 11.8 0 1 0-18.5 0l-7.8 13.5-1.9-.2a11.8 11.8 0 0 0-9.2 19.3l-7.3 12.8-2.5-.3a11.8 11.8 0 1 0 11.2 15.8h15.6a11.8 11.8 0 0 0 22.3 0h15.1a11.8 11.8 0 1 0 11.2-15.8zm-66 4.5L29 62l2.3.2H33l7.6 13.2a11.8 11.8 0 0 0-1.5 2.8H23.5a11.8 11.8 0 0 0-1.9-3.4zm28.5-45.1l2.4-.3 7.6 13.1a11.9 11.9 0 0 0-1.6 2.3H41.8a11.9 11.9 0 0 0-1.6-2.3l7.6-13.1zm-3 41l-7.1-12.3a11.8 11.8 0 0 0 2.9-5.5h14.5a11.8 11.8 0 0 0 2.9 5.5l-7.1 12.3a11.5 11.5 0 0 0-6.1 0zm12.7 4.6l7.6-13.2h1.7l2.3-.2 7.2 12.5a11.8 11.8 0 0 0-2.1 3.6H61.3a11.8 11.8 0 0 0-1.4-2.7zM73 50.4a3.8 3.8 0 1 1-3.8-3.8 3.8 3.8 0 0 1 3.8 3.8zM50.2 14a3.8 3.8 0 0 1 0 7.7 3.8 3.8 0 0 1 0-7.7zM31.3 46.5a3.8 3.8 0 1 1-3.8 3.8 3.8 3.8 0 0 1 3.8-3.8zM12.3 86a3.8 3.8 0 1 1 3.8-3.8 3.8 3.8 0 0 1-3.8 3.8zm37.9 0a3.8 3.8 0 1 1 3.8-3.8 3.8 3.8 0 0 1-3.8 3.8zm37.4 0a3.8 3.8 0 1 1 3.8-3.8 3.8 3.8 0 0 1-3.7 3.8z"></path></g></g><!----></svg>