<svg data-v-fde0c5aa="" xmlns="http://www.w3.org/2000/svg" viewBox="0 0 300 300" class="icon"><!----><defs data-v-fde0c5aa=""><!----></defs><rect data-v-fde0c5aa="" fill="transparent" x="0" y="0" width="300px" height="300px" class="logo-background-square"></rect><!----><defs data-v-fde0c5aa=""><linearGradient data-v-fde0c5aa="" gradientTransform="rotate(25)" id="3ae8a260-04d4-4aae-8d91-405278e265c3" x1="0%" y1="0%" x2="100%" y2="0%"><stop data-v-fde0c5aa="" offset="0%" stop-color="#0015D6" stop-opacity="1"></stop><stop data-v-fde0c5aa="" offset="100%" stop-color="#0989FB" stop-opacity="1"></stop></linearGradient></defs><g data-v-fde0c5aa="" id="c334786b-f033-4292-8262-49fc61a8d834" fill="url(#3ae8a260-04d4-4aae-8d91-405278e265c3)" stroke="none" transform="matrix(2.226666244537742,0,0,2.226666244537742,38.66667941177493,38.5428858213329)"><g data-name="Group"><path data-name="Compound Path" d="M87.7 70.3l-2.1.2-7.3-12.6a11.8 11.8 0 0 0-9.2-19.3l-1.9.2-7.7-13.6a11.8 11.8 0 1 0-18.5 0l-7.8 13.5-1.9-.2a11.8 11.8 0 0 0-9.2 19.3l-7.3 12.8-2.5-.3a11.8 11.8 0 1 0 11.2 15.8h15.6a11.8 11.8 0 0 0 22.3 0h15.1a11.8 11.8 0 1 0 11.2-15.8zm-66 4.5L29 62l2.3.2H33l7.6 13.2a11.8 11.8 0 0 0-1.5 2.8H23.5a11.8 11.8 0 0 0-1.9-3.4zm28.5-45.1l2.4-.3 7.6 13.1a11.9 11.9 0 0 0-1.6 2.3H41.8a11.9 11.9 0 0 0-1.6-2.3l7.6-13.1zm-3 41l-7.1-12.3a11.8 11.8 0 0 0 2.9-5.5h14.5a11.8 11.8 0 0 0 2.9 5.5l-7.1 12.3a11.5 11.5 0 0 0-6.1 0zm12.7 4.6l7.6-13.2h1.7l2.3-.2 7.2 12.5a11.8 11.8 0 0 0-2.1 3.6H61.3a11.8 11.8 0 0 0-1.4-2.7zM73 50.4a3.8 3.8 0 1 1-3.8-3.8 3.8 3.8 0 0 1 3.8 3.8zM50.2 14a3.8 3.8 0 0 1 0 7.7 3.8 3.8 0 0 1 0-7.7zM31.3 46.5a3.8 3.8 0 1 1-3.8 3.8 3.8 3.8 0 0 1 3.8-3.8zM12.3 86a3.8 3.8 0 1 1 3.8-3.8 3.8 3.8 0 0 1-3.8 3.8zm37.9 0a3.8 3.8 0 1 1 3.8-3.8 3.8 3.8 0 0 1-3.8 3.8zm37.4 0a3.8 3.8 0 1 1 3.8-3.8 3.8 3.8 0 0 1-3.7 3.8z"></path></g></g><!----></svg>